<svg xmlns="http://www.w3.org/2000/svg" xmlns:xlink="http://www.w3.org/1999/xlink" width="100" zoomAndPan="magnify" viewBox="0 0 75 30.000001" height="40" preserveAspectRatio="xMidYMid meet" version="1.0"><defs><g/><clipPath id="id1"><path d="M 1.210938 0 L 73.789062 0 L 73.789062 29.03125 L 1.210938 29.03125 Z M 1.210938 0 " clip-rule="nonzero"/></clipPath><clipPath id="id2"><path d="M 47 19 L 49 19 L 49 22 L 47 22 Z M 47 19 " clip-rule="nonzero"/></clipPath><clipPath id="id3"><path d="M 44.601562 19.832031 L 54.695312 16.78125 L 57.136719 24.859375 L 47.039062 27.910156 Z M 44.601562 19.832031 " clip-rule="nonzero"/></clipPath><clipPath id="id4"><path d="M 44.601562 19.832031 L 54.695312 16.78125 L 57.136719 24.859375 L 47.039062 27.910156 Z M 44.601562 19.832031 " clip-rule="nonzero"/></clipPath><clipPath id="id5"><path d="M 50 17 L 53 17 L 53 20 L 50 20 Z M 50 17 " clip-rule="nonzero"/></clipPath><clipPath id="id6"><path d="M 44.601562 19.832031 L 54.695312 16.78125 L 57.136719 24.859375 L 47.039062 27.910156 Z M 44.601562 19.832031 " clip-rule="nonzero"/></clipPath><clipPath id="id7"><path d="M 44.601562 19.832031 L 54.695312 16.78125 L 57.136719 24.859375 L 47.039062 27.910156 Z M 44.601562 19.832031 " clip-rule="nonzero"/></clipPath><clipPath id="id8"><path d="M 46 19 L 56 19 L 56 27 L 46 27 Z M 46 19 " clip-rule="nonzero"/></clipPath><clipPath id="id9"><path d="M 44.601562 19.832031 L 54.695312 16.78125 L 57.136719 24.859375 L 47.039062 27.910156 Z M 44.601562 19.832031 " clip-rule="nonzero"/></clipPath><clipPath id="id10"><path d="M 44.601562 19.832031 L 54.695312 16.78125 L 57.136719 24.859375 L 47.039062 27.910156 Z M 44.601562 19.832031 " clip-rule="nonzero"/></clipPath></defs><g clip-path="url(#id1)"><path fill="#ffffff" d="M 1.210938 0 L 73.789062 0 L 73.789062 36.289062 L 1.210938 36.289062 Z M 1.210938 0 " fill-opacity="1" fill-rule="nonzero"/><path fill="#ffffff" d="M 1.210938 0 L 73.789062 0 L 73.789062 29.03125 L 1.210938 29.03125 Z M 1.210938 0 " fill-opacity="1" fill-rule="nonzero"/><path fill="#ffffff" d="M 1.210938 0 L 73.789062 0 L 73.789062 29.03125 L 1.210938 29.03125 Z M 1.210938 0 " fill-opacity="1" fill-rule="nonzero"/><path fill="#ffffff" d="M 1.210938 0 L 73.789062 0 L 73.789062 29.03125 L 1.210938 29.03125 Z M 1.210938 0 " fill-opacity="1" fill-rule="nonzero"/></g><g fill="#ffde59" fill-opacity="1"><g transform="translate(2.136238, 15.524072)"><g><path d="M 6.5 -9.921875 C 6.582031 -10.109375 6.703125 -10.257812 6.859375 -10.375 C 7.023438 -10.488281 7.195312 -10.546875 7.375 -10.546875 C 7.539062 -10.546875 7.703125 -10.488281 7.859375 -10.375 C 8.015625 -10.269531 8.140625 -10.128906 8.234375 -9.953125 C 8.722656 -8.941406 9.207031 -7.847656 9.6875 -6.671875 C 10.175781 -5.492188 10.613281 -4.378906 11 -3.328125 C 11.21875 -4.941406 11.457031 -6.566406 11.71875 -8.203125 C 11.976562 -9.835938 12.269531 -11.398438 12.59375 -12.890625 C 12.632812 -13.054688 12.691406 -13.191406 12.765625 -13.296875 C 12.847656 -13.410156 12.929688 -13.492188 13.015625 -13.546875 C 13.109375 -13.609375 13.203125 -13.648438 13.296875 -13.671875 C 13.398438 -13.703125 13.484375 -13.71875 13.546875 -13.71875 C 13.765625 -13.71875 13.945312 -13.65625 14.09375 -13.53125 C 14.238281 -13.414062 14.3125 -13.253906 14.3125 -13.046875 C 14.3125 -12.804688 14.269531 -12.390625 14.1875 -11.796875 C 14.113281 -11.210938 14.007812 -10.523438 13.875 -9.734375 C 13.75 -8.953125 13.601562 -8.117188 13.4375 -7.234375 C 13.28125 -6.359375 13.125 -5.507812 12.96875 -4.6875 C 12.8125 -3.875 12.660156 -3.128906 12.515625 -2.453125 C 12.367188 -1.773438 12.253906 -1.265625 12.171875 -0.921875 C 12.085938 -0.617188 11.96875 -0.390625 11.8125 -0.234375 C 11.65625 -0.0859375 11.429688 -0.015625 11.140625 -0.015625 C 10.828125 -0.015625 10.5625 -0.15625 10.34375 -0.4375 C 10.132812 -0.71875 9.898438 -1.15625 9.640625 -1.75 C 9.390625 -2.34375 9.085938 -3.101562 8.734375 -4.03125 C 8.390625 -4.96875 7.9375 -6.082031 7.375 -7.375 C 6.800781 -6.082031 6.335938 -4.96875 5.984375 -4.03125 C 5.628906 -3.09375 5.320312 -2.328125 5.0625 -1.734375 C 4.8125 -1.140625 4.578125 -0.703125 4.359375 -0.421875 C 4.140625 -0.140625 3.878906 0 3.578125 0 C 3.054688 0 2.710938 -0.296875 2.546875 -0.890625 C 2.441406 -1.242188 2.316406 -1.753906 2.171875 -2.421875 C 2.035156 -3.085938 1.890625 -3.828125 1.734375 -4.640625 C 1.585938 -5.460938 1.4375 -6.3125 1.28125 -7.1875 C 1.125 -8.070312 0.988281 -8.898438 0.875 -9.671875 C 0.757812 -10.453125 0.664062 -11.132812 0.59375 -11.71875 C 0.519531 -12.3125 0.484375 -12.726562 0.484375 -12.96875 C 0.484375 -13.1875 0.554688 -13.363281 0.703125 -13.5 C 0.847656 -13.644531 1.046875 -13.71875 1.296875 -13.71875 C 1.484375 -13.71875 1.660156 -13.660156 1.828125 -13.546875 C 1.992188 -13.441406 2.117188 -13.222656 2.203125 -12.890625 C 2.515625 -11.398438 2.789062 -9.835938 3.03125 -8.203125 C 3.269531 -6.566406 3.523438 -4.941406 3.796875 -3.328125 C 4.203125 -4.273438 4.601562 -5.28125 5 -6.34375 C 5.40625 -7.40625 5.90625 -8.597656 6.5 -9.921875 Z M 6.5 -9.921875 "/></g></g></g><g fill="#ffde59" fill-opacity="1"><g transform="translate(17.852723, 15.524072)"><g><path d="M 9.328125 -1 C 9.191406 -1.300781 9.050781 -1.65625 8.90625 -2.0625 C 8.757812 -2.476562 8.601562 -2.914062 8.4375 -3.375 C 8.039062 -3.351562 7.628906 -3.335938 7.203125 -3.328125 C 6.773438 -3.328125 6.34375 -3.328125 5.90625 -3.328125 C 5.34375 -3.328125 4.832031 -3.328125 4.375 -3.328125 C 3.925781 -3.328125 3.515625 -3.332031 3.140625 -3.34375 C 2.984375 -2.894531 2.832031 -2.46875 2.6875 -2.0625 C 2.539062 -1.65625 2.40625 -1.300781 2.28125 -1 C 2.019531 -0.332031 1.644531 0 1.15625 0 C 0.96875 0 0.789062 -0.0546875 0.625 -0.171875 C 0.46875 -0.285156 0.390625 -0.457031 0.390625 -0.6875 C 0.390625 -0.90625 0.425781 -1.191406 0.5 -1.546875 C 0.582031 -1.898438 0.6875 -2.28125 0.8125 -2.6875 C 0.9375 -3.101562 1.066406 -3.523438 1.203125 -3.953125 C 1.347656 -4.390625 1.484375 -4.796875 1.609375 -5.171875 C 1.742188 -5.585938 1.929688 -6.117188 2.171875 -6.765625 C 2.410156 -7.410156 2.664062 -8.082031 2.9375 -8.78125 C 3.207031 -9.476562 3.476562 -10.164062 3.75 -10.84375 C 4.03125 -11.53125 4.28125 -12.128906 4.5 -12.640625 C 4.550781 -12.765625 4.613281 -12.90625 4.6875 -13.0625 C 4.769531 -13.226562 4.863281 -13.382812 4.96875 -13.53125 C 5.082031 -13.675781 5.207031 -13.800781 5.34375 -13.90625 C 5.476562 -14.007812 5.628906 -14.0625 5.796875 -14.0625 C 5.972656 -14.0625 6.128906 -14.003906 6.265625 -13.890625 C 6.410156 -13.773438 6.535156 -13.640625 6.640625 -13.484375 C 6.753906 -13.335938 6.851562 -13.175781 6.9375 -13 C 7.019531 -12.832031 7.085938 -12.6875 7.140625 -12.5625 C 7.347656 -12.039062 7.582031 -11.441406 7.84375 -10.765625 C 8.113281 -10.085938 8.378906 -9.40625 8.640625 -8.71875 C 8.910156 -8.03125 9.160156 -7.375 9.390625 -6.75 C 9.628906 -6.132812 9.820312 -5.609375 9.96875 -5.171875 C 10.082031 -4.796875 10.210938 -4.394531 10.359375 -3.96875 C 10.515625 -3.539062 10.65625 -3.117188 10.78125 -2.703125 C 10.914062 -2.285156 11.023438 -1.898438 11.109375 -1.546875 C 11.191406 -1.191406 11.234375 -0.90625 11.234375 -0.6875 C 11.234375 -0.457031 11.148438 -0.285156 10.984375 -0.171875 C 10.828125 -0.0546875 10.65625 0 10.46875 0 C 10.238281 0 10.023438 -0.078125 9.828125 -0.234375 C 9.640625 -0.398438 9.472656 -0.65625 9.328125 -1 Z M 5.875 -5.28125 C 6.1875 -5.28125 6.5 -5.273438 6.8125 -5.265625 C 7.125 -5.253906 7.4375 -5.242188 7.75 -5.234375 C 7.59375 -5.691406 7.4375 -6.144531 7.28125 -6.59375 C 7.125 -7.050781 6.976562 -7.488281 6.84375 -7.90625 C 6.707031 -8.320312 6.582031 -8.707031 6.46875 -9.0625 C 6.363281 -9.414062 6.269531 -9.726562 6.1875 -10 C 6.132812 -10.175781 6.078125 -10.316406 6.015625 -10.421875 C 5.953125 -10.523438 5.867188 -10.578125 5.765625 -10.578125 C 5.660156 -10.578125 5.570312 -10.519531 5.5 -10.40625 C 5.4375 -10.289062 5.378906 -10.148438 5.328125 -9.984375 C 5.171875 -9.453125 4.953125 -8.757812 4.671875 -7.90625 C 4.398438 -7.0625 4.109375 -6.171875 3.796875 -5.234375 C 4.148438 -5.242188 4.5 -5.253906 4.84375 -5.265625 C 5.195312 -5.273438 5.539062 -5.28125 5.875 -5.28125 Z M 5.875 -5.28125 "/></g></g></g><g fill="#ffde59" fill-opacity="1"><g transform="translate(30.394781, 15.524072)"><g><path d="M 5.671875 -4.796875 C 5.484375 -4.773438 5.296875 -4.757812 5.109375 -4.75 C 4.921875 -4.75 4.726562 -4.75 4.53125 -4.75 C 4.3125 -4.75 4.09375 -4.75 3.875 -4.75 C 3.65625 -4.75 3.410156 -4.765625 3.140625 -4.796875 L 3.140625 -0.84375 C 3.140625 -0.425781 3.035156 -0.164062 2.828125 -0.0625 C 2.628906 0.03125 2.378906 0.078125 2.078125 0.078125 C 1.921875 0.078125 1.796875 0.0664062 1.703125 0.046875 C 1.617188 0.0234375 1.546875 -0.0078125 1.484375 -0.0625 C 1.429688 -0.125 1.382812 -0.210938 1.34375 -0.328125 C 1.3125 -0.441406 1.289062 -0.601562 1.28125 -0.8125 C 1.257812 -1.050781 1.238281 -1.394531 1.21875 -1.84375 C 1.207031 -2.289062 1.195312 -2.867188 1.1875 -3.578125 C 1.1875 -4.296875 1.179688 -5.160156 1.171875 -6.171875 C 1.171875 -7.191406 1.171875 -8.390625 1.171875 -9.765625 C 1.171875 -10.304688 1.234375 -10.828125 1.359375 -11.328125 C 1.492188 -11.828125 1.726562 -12.265625 2.0625 -12.640625 C 2.394531 -13.023438 2.847656 -13.332031 3.421875 -13.5625 C 4.003906 -13.800781 4.742188 -13.921875 5.640625 -13.921875 C 6.273438 -13.921875 6.894531 -13.847656 7.5 -13.703125 C 8.101562 -13.554688 8.640625 -13.304688 9.109375 -12.953125 C 9.578125 -12.609375 9.953125 -12.140625 10.234375 -11.546875 C 10.523438 -10.953125 10.671875 -10.207031 10.671875 -9.3125 C 10.671875 -8.113281 10.410156 -7.1875 9.890625 -6.53125 C 9.378906 -5.875 8.675781 -5.410156 7.78125 -5.140625 L 10.390625 -1.5625 C 10.628906 -1.25 10.75 -0.929688 10.75 -0.609375 C 10.75 -0.347656 10.660156 -0.144531 10.484375 0 C 10.304688 0.15625 10.085938 0.234375 9.828125 0.234375 C 9.546875 0.234375 9.300781 0.15625 9.09375 0 C 8.882812 -0.164062 8.691406 -0.378906 8.515625 -0.640625 Z M 8.71875 -9.328125 C 8.71875 -10.222656 8.445312 -10.882812 7.90625 -11.3125 C 7.375 -11.75 6.523438 -11.96875 5.359375 -11.96875 C 4.929688 -11.96875 4.570312 -11.929688 4.28125 -11.859375 C 4 -11.796875 3.769531 -11.664062 3.59375 -11.46875 C 3.425781 -11.269531 3.304688 -11 3.234375 -10.65625 C 3.171875 -10.3125 3.140625 -9.875 3.140625 -9.34375 C 3.140625 -8.96875 3.140625 -8.523438 3.140625 -8.015625 C 3.140625 -7.515625 3.144531 -7.054688 3.15625 -6.640625 C 3.457031 -6.628906 3.789062 -6.625 4.15625 -6.625 C 4.53125 -6.625 4.878906 -6.625 5.203125 -6.625 C 5.566406 -6.625 5.953125 -6.644531 6.359375 -6.6875 C 6.765625 -6.726562 7.140625 -6.84375 7.484375 -7.03125 C 7.835938 -7.21875 8.128906 -7.488281 8.359375 -7.84375 C 8.597656 -8.207031 8.71875 -8.703125 8.71875 -9.328125 Z M 8.71875 -9.328125 "/></g></g></g><g fill="#ffde59" fill-opacity="1"><g transform="translate(42.547338, 15.524072)"><g><path d="M 6.390625 -3.3125 C 5.785156 -4.625 5.253906 -5.890625 4.796875 -7.109375 C 4.335938 -8.335938 3.945312 -9.429688 3.625 -10.390625 C 3.320312 -8.785156 3.066406 -7.164062 2.859375 -5.53125 C 2.660156 -3.894531 2.410156 -2.332031 2.109375 -0.84375 C 2.023438 -0.5 1.878906 -0.269531 1.671875 -0.15625 C 1.460938 -0.0507812 1.289062 0 1.15625 0 C 0.914062 0 0.726562 -0.0664062 0.59375 -0.203125 C 0.457031 -0.347656 0.390625 -0.535156 0.390625 -0.765625 C 0.390625 -1.054688 0.425781 -1.507812 0.5 -2.125 C 0.570312 -2.75 0.660156 -3.445312 0.765625 -4.21875 C 0.878906 -5 1.003906 -5.816406 1.140625 -6.671875 C 1.285156 -7.535156 1.429688 -8.363281 1.578125 -9.15625 C 1.734375 -9.957031 1.878906 -10.679688 2.015625 -11.328125 C 2.148438 -11.972656 2.269531 -12.472656 2.375 -12.828125 C 2.539062 -13.421875 2.882812 -13.71875 3.40625 -13.71875 C 3.71875 -13.71875 3.984375 -13.566406 4.203125 -13.265625 C 4.421875 -12.960938 4.65625 -12.492188 4.90625 -11.859375 C 5.164062 -11.234375 5.472656 -10.441406 5.828125 -9.484375 C 6.179688 -8.523438 6.644531 -7.394531 7.21875 -6.09375 C 7.78125 -7.394531 8.234375 -8.519531 8.578125 -9.46875 C 8.921875 -10.425781 9.210938 -11.21875 9.453125 -11.84375 C 9.691406 -12.476562 9.921875 -12.945312 10.140625 -13.25 C 10.359375 -13.550781 10.628906 -13.703125 10.953125 -13.703125 C 11.253906 -13.703125 11.484375 -13.628906 11.640625 -13.484375 C 11.796875 -13.335938 11.914062 -13.113281 12 -12.8125 C 12.082031 -12.445312 12.1875 -11.941406 12.3125 -11.296875 C 12.445312 -10.660156 12.585938 -9.945312 12.734375 -9.15625 C 12.890625 -8.375 13.035156 -7.550781 13.171875 -6.6875 C 13.316406 -5.832031 13.445312 -5.015625 13.5625 -4.234375 C 13.6875 -3.460938 13.78125 -2.757812 13.84375 -2.125 C 13.914062 -1.5 13.953125 -1.019531 13.953125 -0.6875 C 13.953125 -0.476562 13.878906 -0.3125 13.734375 -0.1875 C 13.597656 -0.0625 13.421875 0 13.203125 0 C 13.054688 0 12.878906 -0.0507812 12.671875 -0.15625 C 12.460938 -0.269531 12.320312 -0.5 12.25 -0.84375 C 12.09375 -1.582031 11.953125 -2.347656 11.828125 -3.140625 C 11.703125 -3.929688 11.582031 -4.726562 11.46875 -5.53125 C 11.363281 -6.34375 11.257812 -7.15625 11.15625 -7.96875 C 11.050781 -8.78125 10.941406 -9.585938 10.828125 -10.390625 C 10.660156 -9.878906 10.460938 -9.3125 10.234375 -8.6875 C 10.015625 -8.0625 9.78125 -7.429688 9.53125 -6.796875 C 9.289062 -6.171875 9.039062 -5.550781 8.78125 -4.9375 C 8.519531 -4.332031 8.265625 -3.785156 8.015625 -3.296875 C 7.929688 -3.117188 7.8125 -2.988281 7.65625 -2.90625 C 7.507812 -2.820312 7.359375 -2.78125 7.203125 -2.78125 C 7.035156 -2.78125 6.875 -2.820312 6.71875 -2.90625 C 6.570312 -2.988281 6.460938 -3.125 6.390625 -3.3125 Z M 6.390625 -3.3125 "/></g></g></g><g fill="#000000" fill-opacity="1"><g transform="translate(2.847887, 26.361505)"><g><path d="M 0.667969 -3.683594 L 4.117188 -3.683594 L 4.117188 -3.855469 L 0.667969 -3.855469 L 0.667969 -7.371094 L 4.566406 -7.371094 L 4.566406 -7.53125 L 0.507812 -7.53125 C 0.507812 -5.019531 0.507812 -2.511719 0.507812 0 L 0.667969 0 Z M 0.667969 -3.683594 "/></g></g></g><g fill="#000000" fill-opacity="1"><g transform="translate(8.104991, 26.361505)"><g><path d="M 3.179688 0.0859375 C 4.417969 0.0859375 5.816406 -0.644531 5.816406 -2.035156 L 5.816406 -7.53125 L 5.644531 -7.53125 L 5.644531 -2.046875 C 5.644531 -0.734375 4.332031 -0.0859375 3.179688 -0.0859375 C 2.027344 -0.0859375 0.710938 -0.734375 0.710938 -2.035156 L 0.710938 -7.53125 L 0.539062 -7.53125 L 0.539062 -2.046875 C 0.539062 -0.644531 1.929688 0.0859375 3.179688 0.0859375 Z M 3.179688 0.0859375 "/></g></g></g><g fill="#000000" fill-opacity="1"><g transform="translate(14.95643, 26.361505)"><g><path d="M 0.34375 -7.359375 L 5.582031 -7.359375 L 0.109375 -0.152344 L 0.203125 0 C 2.070312 0 3.945312 0 5.808594 0 L 5.808594 -0.160156 L 0.324219 -0.160156 L 5.785156 -7.335938 L 5.667969 -7.53125 L 0.34375 -7.53125 Z M 0.34375 -7.359375 "/></g></g></g><g fill="#000000" fill-opacity="1"><g transform="translate(21.420057, 26.361505)"><g><path d="M 0.34375 -7.359375 L 5.582031 -7.359375 L 0.109375 -0.152344 L 0.203125 0 C 2.070312 0 3.945312 0 5.808594 0 L 5.808594 -0.160156 L 0.324219 -0.160156 L 5.785156 -7.335938 L 5.667969 -7.53125 L 0.34375 -7.53125 Z M 0.34375 -7.359375 "/></g></g></g><g fill="#000000" fill-opacity="1"><g transform="translate(27.883685, 26.361505)"><g><path d="M 3.523438 -7.53125 C 2.402344 -7.53125 1.269531 -7.53125 0.152344 -7.53125 L 0.152344 -7.378906 L 1.757812 -7.378906 L 1.757812 -0.160156 L 0.152344 -0.160156 L 0.152344 0 C 1.269531 0 2.402344 0 3.523438 0 L 3.523438 -0.160156 L 1.917969 -0.160156 L 1.917969 -7.378906 L 3.523438 -7.378906 Z M 3.523438 -7.53125 "/></g></g></g><g fill="#000000" fill-opacity="1"><g transform="translate(32.063535, 26.361505)"><g><path d="M 0.679688 -3.683594 L 4.578125 -3.683594 L 4.578125 -3.855469 L 0.679688 -3.855469 L 0.679688 -7.371094 L 4.664062 -7.371094 L 4.664062 -7.53125 L 0.507812 -7.53125 L 0.507812 0 L 4.6875 0 L 4.6875 -0.160156 L 0.679688 -0.160156 Z M 0.679688 -3.683594 "/></g></g></g><g fill="#000000" fill-opacity="1"><g transform="translate(37.536089, 26.361505)"><g><path d="M 5.226562 -5.871094 L 5.386719 -5.902344 L 5.375 -5.992188 C 5.011719 -7.941406 1.90625 -8.125 0.808594 -6.703125 C 0.527344 -6.335938 0.410156 -5.894531 0.453125 -5.441406 C 0.644531 -2.628906 4.902344 -4.675781 5.386719 -2.433594 C 5.699219 -0.9375 4.277344 -0.0859375 2.964844 -0.0859375 C 1.9375 -0.0859375 0.679688 -0.65625 0.558594 -1.789062 L 0.550781 -1.863281 L 0.378906 -1.84375 L 0.386719 -1.765625 C 0.515625 -0.550781 1.851562 0.0742188 2.953125 0.0742188 C 4.386719 0.0742188 5.902344 -0.871094 5.558594 -2.46875 C 5.042969 -4.878906 0.808594 -2.8125 0.613281 -5.453125 C 0.582031 -5.871094 0.679688 -6.269531 0.949219 -6.605469 C 1.402344 -7.195312 2.207031 -7.457031 2.917969 -7.464844 C 3.597656 -7.476562 4.34375 -7.273438 4.804688 -6.777344 C 5.019531 -6.539062 5.148438 -6.269531 5.214844 -5.957031 Z M 5.226562 -5.871094 "/></g></g></g><g clip-path="url(#id2)"><g clip-path="url(#id3)"><g clip-path="url(#id4)"><path fill="#fe027e" d="M 47.308594 19.414062 C 47.339844 19.6875 47.457031 19.96875 47.539062 20.234375 C 47.628906 20.511719 47.722656 20.78125 47.828125 21.050781 C 47.933594 21.308594 48.390625 21.210938 48.367188 20.929688 C 48.339844 20.609375 48.285156 20.320312 48.1875 20.019531 C 48.089844 19.726562 47.980469 19.40625 47.785156 19.164062 C 47.707031 19.070312 47.554688 19.054688 47.453125 19.105469 C 47.335938 19.167969 47.296875 19.289062 47.308594 19.414062 Z M 47.308594 19.414062 " fill-opacity="1" fill-rule="nonzero"/></g></g></g><g clip-path="url(#id5)"><g clip-path="url(#id6)"><g clip-path="url(#id7)"><path fill="#fe027e" d="M 50.996094 18.203125 C 50.957031 18.441406 51.089844 18.734375 51.167969 18.960938 C 51.257812 19.222656 51.363281 19.457031 51.507812 19.691406 C 51.707031 20.011719 52.128906 19.828125 52.097656 19.476562 C 52.070312 19.183594 52 18.929688 51.882812 18.660156 C 51.78125 18.417969 51.667969 18.125 51.441406 17.964844 C 51.242188 17.824219 51.027344 18 50.996094 18.203125 Z M 50.996094 18.203125 " fill-opacity="1" fill-rule="nonzero"/></g></g></g><g clip-path="url(#id8)"><g clip-path="url(#id9)"><g clip-path="url(#id10)"><path fill="#fe027e" d="M 46.027344 24.480469 C 46.175781 25.003906 46.582031 25.417969 46.996094 25.746094 C 47.402344 26.074219 47.875 26.320312 48.367188 26.484375 C 49.308594 26.796875 50.351562 26.820312 51.308594 26.574219 C 52.277344 26.328125 53.195312 25.832031 53.894531 25.109375 C 54.59375 24.390625 55.09375 23.488281 55.363281 22.519531 C 55.511719 21.984375 55.59375 21.425781 55.597656 20.871094 C 55.605469 20.582031 55.589844 20.289062 55.554688 20.003906 C 55.511719 19.722656 55.476562 19.398438 55.308594 19.160156 C 55.152344 18.9375 54.84375 18.992188 54.800781 19.273438 C 54.765625 19.5 54.824219 19.71875 54.84375 19.945312 C 54.863281 20.171875 54.878906 20.394531 54.878906 20.621094 C 54.882812 21.050781 54.84375 21.488281 54.75 21.90625 C 54.5625 22.757812 54.199219 23.578125 53.640625 24.25 C 52.535156 25.578125 50.707031 26.269531 49 25.949219 C 48.5 25.855469 48.007812 25.675781 47.574219 25.417969 C 47.078125 25.128906 46.726562 24.722656 46.324219 24.320312 C 46.207031 24.207031 45.976562 24.304688 46.027344 24.480469 Z M 46.027344 24.480469 " fill-opacity="1" fill-rule="nonzero"/></g></g></g></svg>